<?xml version="1.0" encoding="UTF-8"?>
<svg version="1.1" xmlns="http://www.w3.org/2000/svg" width="512" height="512">
<path d="M0 0 C0.92253571 0.00182281 1.84507141 0.00364563 2.79556274 0.00552368 C16.86324579 0.05224601 30.52884691 0.65408123 44.375 3.3125 C45.25897461 3.4681543 46.14294922 3.62380859 47.05371094 3.78417969 C90.72528948 11.55111645 140.79291233 32.0135526 171.375 65.3125 C173.96980209 69.49071167 174.04871176 73.52166082 173.375 78.3125 C171.12110239 82.82029523 168.87513267 85.12846085 164.375 87.3125 C161.0725565 87.68888092 161.0725565 87.68888092 157.24012756 87.69104004 C156.53267267 87.69557017 155.82521778 87.7001003 155.09632486 87.7047677 C152.73077625 87.71637409 150.36579508 87.70675142 148.00024414 87.69726562 C146.30123022 87.70137215 144.60221912 87.7068335 142.9032135 87.71354675 C139.2435316 87.72527432 135.58400053 87.72775472 131.92430305 87.72319031 C126.1167296 87.71636575 120.30935305 87.73227998 114.5018158 87.75158691 C102.14705455 87.78945909 89.79231034 87.8022136 77.4375 87.8125 C64.15541404 87.8235969 50.87341961 87.8392983 37.59139532 87.88321257 C32.77512512 87.89843139 27.95901173 87.90753617 23.14271736 87.90180969 C-11.10032336 87.55924634 -11.10032336 87.55924634 -44.5625 94.125 C-45.42327148 94.38434326 -46.28404297 94.64368652 -47.17089844 94.91088867 C-70.41881603 102.07358507 -92.69430851 113.47767698 -110.4765625 130.28515625 C-112.42297839 132.12186506 -114.43023449 133.80617149 -116.5 135.5 C-146.75248907 162.03192086 -163.6922723 204.28157519 -166.40869141 243.67236328 C-166.54985666 245.96637835 -166.67028735 248.26179059 -166.76708984 250.55810547 C-167.15844178 257.87044353 -167.93939922 261.79617821 -173.33094788 266.94009399 C-176.48774453 268.8286329 -178.85009564 268.69360966 -182.51733398 268.70068359 C-183.54491821 268.70856903 -183.54491821 268.70856903 -184.59326172 268.71661377 C-186.85277257 268.72979318 -189.111576 268.72108256 -191.37109375 268.7109375 C-192.94523758 268.71295907 -194.51938049 268.71587121 -196.09352112 268.71963501 C-199.39129561 268.72405575 -202.68882615 268.71763639 -205.98657227 268.70361328 C-210.2078596 268.6865354 -214.42857411 268.69635497 -218.64984035 268.71433067 C-221.90041901 268.72518739 -225.15086259 268.72171331 -228.40144539 268.7139473 C-229.95753103 268.71194977 -231.51362905 268.71438884 -233.06970024 268.72138596 C-235.24788614 268.72903021 -237.42515373 268.71735531 -239.60327148 268.70068359 C-240.84141098 268.69829681 -242.07955048 268.69591003 -243.35520935 268.69345093 C-246.91517354 268.27869298 -248.77408487 267.44180233 -251.625 265.3125 C-254.26589131 261.83447284 -255.00733883 259.31139511 -255.0234375 254.98046875 C-255.02972168 253.94728516 -255.03600586 252.91410156 -255.04248047 251.84960938 C-255.02145264 250.19155273 -255.02145264 250.19155273 -255 248.5 C-254.98984863 247.34435547 -254.97969727 246.18871094 -254.96923828 244.99804688 C-254.15671084 198.81625482 -238.93426629 151.37882163 -212.625 113.3125 C-212.22361816 112.72017578 -211.82223633 112.12785156 -211.40869141 111.51757812 C-197.64841209 91.26680666 -180.77556753 72.53917547 -161.625 57.3125 C-160.55146889 56.43695076 -159.47857003 55.56062583 -158.40625 54.68359375 C-135.94290667 36.45929542 -110.05598521 22.46341142 -82.625 13.3125 C-81.4191626 12.90378662 -81.4191626 12.90378662 -80.18896484 12.48681641 C-70.24800838 9.16516509 -60.20569737 6.65402547 -49.9375 4.5625 C-48.96522461 4.36374268 -47.99294922 4.16498535 -46.99121094 3.96020508 C-31.30908458 0.92247668 -15.94159606 -0.06559884 0 0 Z " fill="#D6AE85" transform="translate(255.625,0.6875)"/>
<path d="M0 0 C1.02758423 -0.00788544 1.02758423 -0.00788544 2.07592773 -0.01593018 C4.33543858 -0.02910959 6.59424202 -0.02039897 8.85375977 -0.01025391 C10.42790359 -0.01227548 12.00204651 -0.01518762 13.57618713 -0.01895142 C16.87396163 -0.02337216 20.17149217 -0.0169528 23.46923828 -0.00292969 C27.69052562 0.0141482 31.91124012 0.00432863 36.13250637 -0.01364708 C39.38308503 -0.02450379 42.63352861 -0.02102972 45.8841114 -0.0132637 C47.44019705 -0.01126617 48.99629506 -0.01370525 50.55236626 -0.02070236 C52.73055216 -0.02834662 54.90781974 -0.01667171 57.0859375 0 C58.94314674 0.00358017 58.94314674 0.00358017 60.83787537 0.00723267 C64.39760806 0.42196364 66.25647651 1.25979759 69.10766602 3.38818359 C71.81534302 6.93345803 72.49039689 9.519046 72.50610352 13.93896484 C72.51230713 15.01758789 72.51851074 16.09621094 72.52490234 17.20751953 C72.51096436 18.36026367 72.49702637 19.51300781 72.48266602 20.70068359 C72.47323975 21.90112305 72.46381348 23.1015625 72.45410156 24.33837891 C71.88162253 58.99730849 63.33410374 93.27959121 48.10766602 124.38818359 C47.73416016 125.15437012 47.3606543 125.92055664 46.97583008 126.70996094 C35.88800366 149.18565903 21.48211619 169.34885531 4.10766602 187.38818359 C3.47554199 188.04753906 2.84341797 188.70689453 2.19213867 189.38623047 C-6.95473452 198.87700359 -16.25679092 207.60139136 -26.89233398 215.38818359 C-27.98513513 216.21063113 -29.07758365 217.03354742 -30.16967773 217.85693359 C-67.13569989 245.3610905 -110.37931891 261.53965524 -155.89233398 267.38818359 C-156.639104 267.49130859 -157.38587402 267.59443359 -158.15527344 267.70068359 C-167.07935134 268.78203892 -176.10436023 268.63209111 -185.07983398 268.63818359 C-186.41883255 268.63919571 -186.41883255 268.63919571 -187.78488159 268.64022827 C-201.70143957 268.62353633 -215.19172494 268.0056749 -228.89233398 265.38818359 C-229.81111328 265.22189453 -230.72989258 265.05560547 -231.67651367 264.88427734 C-254.12232898 260.75173719 -275.42206868 253.43769385 -295.89233398 243.38818359 C-296.64095703 243.02080078 -297.38958008 242.65341797 -298.16088867 242.27490234 C-315.84431732 233.48366772 -331.76446846 222.22612263 -346.95483398 209.63818359 C-347.50349121 209.19031494 -348.05214844 208.74244629 -348.61743164 208.28100586 C-352.40379748 205.09014826 -355.36552844 202.11713121 -356.32592773 197.14208984 C-356.33554464 191.74700711 -355.59261252 188.58849976 -351.89233398 184.38818359 C-347.80816082 181.34093184 -344.80167881 181.01248537 -339.75746155 181.00964355 C-339.05000666 181.00511343 -338.34255176 181.0005833 -337.61365885 180.99591589 C-335.24811023 180.9843095 -332.88312906 180.99393217 -330.51757812 181.00341797 C-328.81856421 180.99931145 -327.1195531 180.9938501 -325.42054749 180.98713684 C-321.76086558 180.97540927 -318.10133452 180.97292888 -314.44163704 180.97749329 C-308.63406359 180.98431784 -302.82668703 180.96840362 -297.01914978 180.94909668 C-284.66438853 180.91122451 -272.30964432 180.89847 -259.95483398 180.88818359 C-246.67274802 180.87708669 -233.39075359 180.86138529 -220.1087293 180.81747103 C-215.2924591 180.80225221 -210.47634572 180.79314743 -205.66005135 180.7988739 C-171.41701062 181.14143725 -171.41701062 181.14143725 -137.95483398 174.57568359 C-137.0940625 174.31634033 -136.23329102 174.05699707 -135.34643555 173.78979492 C-112.10032551 166.62765543 -89.82634852 155.22473976 -72.04467773 138.41943359 C-70.07655633 136.56204134 -68.04531665 134.85431424 -65.95483398 133.13818359 C-37.02065378 107.82077592 -19.05765638 65.83283252 -16.41186523 27.98193359 C-16.29439941 26.30200317 -16.29439941 26.30200317 -16.17456055 24.58813477 C-16.03089689 22.37332001 -15.90576588 20.15720497 -15.80151367 17.94018555 C-15.38315304 10.9983561 -14.38704653 6.72536287 -9.18663025 1.7593689 C-6.02964052 -0.12740483 -3.66655355 0.00707261 0 0 Z " fill="#D6AE85" transform="translate(438.892333984375,242.61181640625)"/>
<path d="M0 0 C0.94504817 -0.00438225 1.89009635 -0.00876451 2.86378235 -0.01327956 C6.02035062 -0.02660031 9.17689102 -0.03283106 12.33348083 -0.03897095 C14.60061263 -0.04687675 16.86774319 -0.055146 19.13487244 -0.06375122 C26.5675182 -0.08989978 34.00016943 -0.10526432 41.43284607 -0.11953735 C43.99306174 -0.12489859 46.55327737 -0.1302761 49.11349297 -0.13566971 C59.7586464 -0.1572813 70.40379701 -0.17617119 81.04896641 -0.1872921 C83.80640225 -0.19022151 86.56383805 -0.19318324 89.3212738 -0.19619751 C90.00657344 -0.19694356 90.69187308 -0.19768961 91.39793938 -0.19845827 C102.5127112 -0.21112679 113.62732363 -0.24437725 124.74202085 -0.28599934 C136.16218856 -0.32841425 147.58223516 -0.35157827 159.00248855 -0.35721266 C165.41119389 -0.36087021 171.8196281 -0.37293632 178.22825813 -0.4053154 C184.2521693 -0.43531797 190.27564408 -0.44173557 196.29961395 -0.42993164 C198.51115734 -0.4297103 200.72272057 -0.4380647 202.93419456 -0.45558548 C205.95161316 -0.47819271 208.96743766 -0.47002101 211.98486328 -0.45410156 C213.29969904 -0.47492469 213.29969904 -0.47492469 214.64109713 -0.49616849 C218.84924201 -0.44139981 221.57483607 -0.16101814 224.90997219 2.5338192 C227.34633287 5.06797729 228.95937216 7.26635095 230.57737732 10.37265015 C231.10387878 11.37658813 231.63038025 12.38052612 232.1728363 13.41488647 C232.98023254 15.01819824 232.98023254 15.01819824 233.80393982 16.65390015 C234.65484192 18.3219873 234.65484192 18.3219873 235.52293396 20.02377319 C240.59442241 30.14869696 244.82201306 40.4268592 248.42893982 51.15390015 C248.7347699 52.05108765 249.04059998 52.94827515 249.35569763 53.87265015 C250.26040925 56.56290137 251.13319977 59.26099629 251.99143982 61.96640015 C252.25561707 62.77246704 252.51979431 63.57853394 252.79197693 64.4090271 C254.69253483 70.69650274 254.8576875 75.77002407 252.24143982 81.96640015 C249.53820968 85.22891928 246.54400638 86.88251438 242.28773749 87.42863941 C239.69344165 87.5395729 237.11488122 87.55180496 234.51824951 87.53244019 C233.02762136 87.53923538 233.02762136 87.53923538 231.50687951 87.54616785 C228.17908971 87.55778902 224.85170208 87.54814563 221.52391052 87.53866577 C219.13696025 87.54277109 216.75001198 87.54823173 214.36306763 87.5549469 C208.55284913 87.5682049 202.74273859 87.56807029 196.93251023 87.56274927 C190.15908011 87.55761011 183.38573314 87.57191707 176.61232545 87.58809763 C164.51905727 87.61673933 152.42580276 87.63425735 140.33250427 87.64266968 C139.60907269 87.64317686 138.88564111 87.64368404 138.14028736 87.64420658 C133.00733835 87.64773253 127.87438914 87.65086157 122.74143982 87.65390015 C116.88670329 87.65736756 111.03196695 87.66101739 105.17723083 87.66513062 C104.45619969 87.66563323 103.73516854 87.66613585 102.99228797 87.66665369 C90.94947664 87.67541213 78.90671213 87.69587901 66.86393231 87.72461271 C60.10805537 87.74021712 53.35227912 87.74941239 46.59638405 87.74320984 C40.23930079 87.737552 33.88237576 87.74525262 27.52531624 87.7630558 C25.19656426 87.76704969 22.86779692 87.76594845 20.53905106 87.75928307 C17.35068836 87.75086073 14.16287812 87.76093894 10.97454834 87.77536011 C10.06129093 87.76846617 9.14803352 87.76157224 8.20710164 87.75446939 C-4.09682241 87.86227234 -16.75948269 91.90829077 -25.91481018 100.37265015 C-35.29458077 110.46032795 -38.74723021 121.19371716 -39.88356018 134.6734314 C-40.81783723 139.40320895 -42.82471468 142.47001445 -46.27799988 145.79978943 C-49.42850747 147.66024469 -51.79907471 147.54198263 -55.44752502 147.55795288 C-56.13097488 147.56481613 -56.81442474 147.57167938 -57.51858521 147.57875061 C-59.77326865 147.59702059 -62.02725623 147.59318048 -64.28199768 147.5874939 C-65.8537468 147.59205631 -67.42549393 147.59736207 -68.99723816 147.6033783 C-72.29080815 147.61231027 -75.5841357 147.60988623 -78.87770081 147.59994507 C-83.09004029 147.5884673 -87.30153999 147.60864731 -91.51376915 147.63786221 C-94.76010929 147.65624761 -98.00624917 147.65592694 -101.25262833 147.65022469 C-102.80510764 147.65007169 -104.35760071 147.65609806 -105.91003036 147.66851616 C-108.08581732 147.68346602 -110.26006604 147.6727216 -112.43580627 147.65560913 C-113.67172516 147.65544296 -114.90764404 147.65527679 -116.18101501 147.65510559 C-120.22267651 147.05756112 -122.39393025 145.67345781 -125.57106018 143.15390015 C-131.07661997 135.0931094 -128.00935926 119.3342075 -126.3908844 110.29354858 C-119.06097851 73.96148377 -99.04039419 42.53332834 -68.30543518 21.53671265 C-62.05293744 17.43785302 -55.37862784 14.21529152 -48.57106018 11.15390015 C-47.94586487 10.8703064 -47.32066956 10.58671265 -46.67652893 10.29452515 C-31.87594889 3.68879258 -16.22919062 0.00923934 0 0 Z " fill="#D6AE85" transform="translate(249.57106018066406,121.84609985351563)"/>
<path d="M0 0 C0.68344986 -0.00686325 1.36689972 -0.0137265 2.07106018 -0.02079773 C4.32574363 -0.03906771 6.5797312 -0.0352276 8.83447266 -0.02954102 C10.40622178 -0.03410343 11.9779689 -0.03940918 13.54971313 -0.04542542 C16.84328313 -0.05435739 20.13661067 -0.05193335 23.43017578 -0.04199219 C27.64251527 -0.03051442 31.85401496 -0.05069443 36.06624413 -0.07990932 C39.31258426 -0.09829473 42.55872414 -0.09797406 45.8051033 -0.0922718 C47.35758261 -0.09211881 48.91007569 -0.09814518 50.46250534 -0.11056328 C52.6382923 -0.12551314 54.81254102 -0.11476872 56.98828125 -0.09765625 C58.84215958 -0.097407 58.84215958 -0.097407 60.73348999 -0.09715271 C64.77515148 0.50039176 66.94640523 1.88449507 70.12353516 4.40405273 C75.62909494 12.46484348 72.56183423 28.22374539 70.94335938 37.2644043 C63.59535417 73.68618179 43.56276944 104.97155564 12.78759766 126.02124023 C-7.32670336 139.34118623 -31.23886315 147.5441708 -55.44752502 147.55795288 C-56.3925732 147.56233513 -57.33762137 147.56671739 -58.31130737 147.57123244 C-61.46787564 147.58455319 -64.62441605 147.59078394 -67.78100586 147.59692383 C-70.04813766 147.60482963 -72.31526821 147.61309888 -74.58239746 147.6217041 C-82.01504323 147.64785266 -89.44769445 147.66321721 -96.88037109 147.67749023 C-99.44058676 147.68285147 -102.00080239 147.68822898 -104.56101799 147.69362259 C-115.20617142 147.71523418 -125.85132203 147.73412407 -136.49649143 147.74524498 C-139.25392727 147.7481744 -142.01136308 147.75113612 -144.76879883 147.75415039 C-145.45409847 147.75489644 -146.13939811 147.75564249 -146.8454644 147.75641115 C-157.96023623 147.76907967 -169.07484865 147.80233013 -180.18954588 147.84395222 C-191.60971358 147.88636713 -203.02976018 147.90953115 -214.45001358 147.91516554 C-220.85871892 147.91882309 -227.26715312 147.9308892 -233.67578316 147.96326828 C-239.69969432 147.99327085 -245.7231691 147.99968845 -251.74713898 147.98788452 C-253.95868237 147.98766319 -256.17024559 147.99601758 -258.38171959 148.01353836 C-261.39913819 148.03614559 -264.41496268 148.02797389 -267.43238831 148.01205444 C-268.30894548 148.02593653 -269.18550264 148.03981862 -270.08862215 148.05412138 C-274.29676703 147.99935269 -277.02236109 147.71897102 -280.35749722 145.02413368 C-282.7938579 142.48997559 -284.40689719 140.29160193 -286.02490234 137.18530273 C-286.55140381 136.18136475 -287.07790527 135.17742676 -287.62036133 134.14306641 C-288.42775757 132.53975464 -288.42775757 132.53975464 -289.25146484 130.90405273 C-289.81873291 129.79199463 -290.38600098 128.67993652 -290.97045898 127.53417969 C-296.04194744 117.40925592 -300.26953808 107.13109368 -303.87646484 96.40405273 C-304.18229492 95.50686523 -304.488125 94.60967773 -304.80322266 93.68530273 C-305.70793427 90.99505151 -306.58072479 88.29695659 -307.43896484 85.59155273 C-307.70314209 84.78548584 -307.96731934 83.97941895 -308.23950195 83.14892578 C-309.8572208 77.79714574 -310.11909165 73.88794567 -308.87646484 68.40405273 C-307.57177734 66.12670898 -307.57177734 66.12670898 -306.00146484 64.46655273 C-305.48841797 63.9006543 -304.97537109 63.33475586 -304.44677734 62.75170898 C-301.74397616 60.4321408 -299.13408432 60.27855569 -295.72740936 60.27376747 C-294.45370239 60.26833095 -294.45370239 60.26833095 -293.15426397 60.2627846 C-291.75453966 60.26438698 -291.75453966 60.26438698 -290.32653809 60.26602173 C-289.33534926 60.26320045 -288.34416043 60.26037917 -287.32293558 60.2574724 C-283.98595314 60.24910824 -280.6490038 60.24778657 -277.31201172 60.24633789 C-274.92550564 60.24167089 -272.53900045 60.23652751 -270.15249634 60.23094177 C-265.00422753 60.21964891 -259.85596456 60.21122035 -254.70768738 60.20482254 C-246.56360723 60.19449253 -238.41956783 60.17392633 -230.2755127 60.15170288 C-227.48821272 60.14422281 -224.70091257 60.13680907 -221.91361237 60.12941551 C-221.21697376 60.12756495 -220.52033515 60.12571438 -219.80258629 60.12380774 C-211.87051072 60.10287601 -203.93843063 60.08405179 -196.00634766 60.06616211 C-194.91865553 60.06370484 -194.91865553 60.06370484 -193.80898982 60.06119792 C-182.0734064 60.03494596 -170.33781983 60.01628482 -158.60221952 59.99957021 C-146.5459323 59.98212204 -134.48970648 59.95324529 -122.43346834 59.91468084 C-115.66749963 59.89342413 -108.90160913 59.87773163 -102.13560486 59.87587357 C-95.76623121 59.87372304 -89.39703959 59.85781197 -83.02772141 59.83148384 C-80.69414143 59.82430422 -78.36053937 59.82218337 -76.02695084 59.82558632 C-72.83184053 59.82950013 -69.63730613 59.81496424 -66.44226074 59.79605103 C-65.52695697 59.80158072 -64.6116532 59.80711042 -63.66861296 59.81280768 C-51.35818403 59.68772463 -38.69504658 55.65613774 -29.53271484 47.18530273 C-20.15294426 37.09762494 -16.70029481 26.36423572 -15.56396484 12.88452148 C-14.6296878 8.15474393 -12.62281035 5.08793844 -9.16952515 1.75816345 C-6.01901755 -0.10229181 -3.64845031 0.01597025 0 0 Z " fill="#D6AE85" transform="translate(317.87646484375,242.595947265625)"/>
</svg>
